<svg xmlns="http://www.w3.org/2000/svg" width="128" height="128"><path fill="#3B97D3" d="M100 99.9v7.9c0 3.3-2.2 6.2-5.5 6.2h-63c-3.3 0-6.5-2.9-6.5-6.2v-89c0-3.3 3.2-5.8 6.5-5.8h63c3.3 0 5.5 2.5 5.5 5.8v48.9l4-4V18.8c0-5.5-4-9.8-9.5-9.8h-63C26 9 21 13.3 21 18.8v89c0 5.5 5 10.2 10.5 10.2h63c5.5 0 9.5-4.7 9.5-10.2V95.9l-4 4z"/><path fill="#2C3E50" d="M120.7 70.2c0-.5-.2-.9-.6-1.2l-5.2-5.2c-.3-.3-.8-.5-1.3-.6l-4.9-.3c-.6 0-1.1.2-1.5.5L82.4 88.2c-.8.8-.8 2 0 2.8.4.4.9.6 1.4.6s1-.2 1.4-.6l24.2-24.2 3.3.2 4.1 4.1.2 3.3-24.2 24.2c-.8.8-.8 2 0 2.8.4.4.9.6 1.4.6s1-.2 1.4-.6l24.8-24.8c.4-.4.6-1 .6-1.5l-.3-4.9z"/><path fill="#2C3E50" d="m89.4 95.6 23.9-23.9c.4-.4.4-1 0-1.4s-1-.4-1.4 0L88 94.2c-.4.4-.4 1 0 1.4.2.2.5.3.7.3s.5-.1.7-.3zM89.8 102l-7 1.6-2.7-2.7 1.7-7c.3-1.1-.4-2.2-1.5-2.4-1.1-.3-2.2.4-2.4 1.5l-3.2 13.7c-.3 1.1.4 2.2 1.5 2.4.2 0 .3.1.5.1s.3 0 .5-.1l13.7-3.2c1.1-.3 1.7-1.3 1.5-2.4-.4-1.1-1.5-1.7-2.6-1.5z"/></svg>