<svg xmlns="http://www.w3.org/2000/svg" viewBox="0 0 47.5 47.5"><defs><clipPath id="a"><path d="M0 38h38V0H0v38Z"/></clipPath></defs><g clip-path="url(#a)" transform="matrix(1.25 0 0 -1.25 0 47.5)"><path fill="#c1694f" d="M2.727 14.701s-1.394 1.291-.103 2.686c1.291 1.393 2.686.101 2.686.101l6.471-5.994c-.102.096.45.879.368.955l-8.982 8.319s-1.394 1.291-.103 2.684c1.292 1.395 2.686.103 2.686.103l8.448-7.825c-.02.018.609.731.597.742l-9.794 9.072s-1.394 1.291-.103 2.685c1.292 1.393 2.686.102 2.686.102l9.793-9.072c.012-.01.683.664.703.645l-9.154 8.479s-1.394 1.291-.103 2.685c1.292 1.393 2.686.102 2.686.102l9.679-8.965c2.866-2.655 3.512-1.958 3.512-1.958l-2.588 2.397-2.989 2.767s-1.394 1.291-.102 2.686c1.292 1.394 2.685.103 2.685.103l7.667-7.102c4.618-4.278 4.895-11.491.616-16.11C25.711.369 18.497.094 13.878 4.371c-.244.226-.682.663-.663.684l-.033-.038-10.455 9.684Z"/><path fill="#d99e82" d="M5.627 16.65s-1.394 1.291-.103 2.685c1.291 1.395 2.685.104 2.685.104l6.472-5.996c-.103.096.45.879.368.955l-8.982 8.319s-1.394 1.291-.103 2.685c1.291 1.394 2.685.103 2.685.103l8.448-7.826c-.019.019.61.731.598.742l-9.794 9.073s-1.394 1.29-.103 2.684c1.291 1.394 2.685.103 2.685.103l9.793-9.071c.013-.012.683.662.703.644l-9.153 8.479s-1.394 1.291-.103 2.684c1.291 1.394 2.685.103 2.685.103l9.68-8.966c2.865-2.654 3.512-1.957 3.512-1.957l-2.589 2.397-2.988 2.767s-1.393 1.291-.103 2.685c1.292 1.394 2.686.103 2.686.103l7.666-7.101c4.619-4.278 4.895-11.492.617-16.11-4.279-4.619-11.492-4.894-16.111-.616-.245.225-.682.662-.663.682l-.034-.038L5.627 16.65Z"/><path fill="#ffac33" d="M25.541 30.541a1 1 0 0 0-.79 1.611l2.978 3.855a.999.999 0 1 0 1.583-1.222l-2.979-3.855a.996.996 0 0 0-.792-.389M20 30a1 1 0 0 0-1 1v5a1 1 0 0 0 2 0v-5a1 1 0 0 0-1-1M29.417 27.333a.999.999 0 0 0-.939.659.999.999 0 0 0 .597 1.281l4.583 1.667a1 1 0 0 0 .684-1.88l-4.583-1.666a1.004 1.004 0 0 0-.342-.061"/></g></svg>