<svg xmlns="http://www.w3.org/2000/svg" viewBox="0 0 1010 1010"><path fill="#545454" d="M914.012 94.687v56.558c0 31.45-25.577 57.028-57.005 57.028-31.45 0-57.072-25.579-57.072-57.028V94.687h-120.58v56.558c0 31.45-25.599 57.028-57.004 57.028-31.45 0-57.05-25.579-57.05-57.028V94.687H444.7v56.558c0 31.45-25.577 57.028-57.006 57.028-31.45 0-57.05-25.579-57.05-57.028V94.687H210.065v56.558c0 31.45-25.621 57.028-57.094 57.028-31.428 0-57.006-25.579-57.006-57.028V94.687H0v867.947C0 988.704 21.318 1010 47.344 1010h915.29c26.048 0 47.366-21.297 47.366-47.366V94.687h-95.988zm1.3 789.064c0 17.35-14.212 31.561-31.562 31.561h-757.5c-17.373 0-31.585-14.211-31.585-31.561V347.187h820.648v536.564z"/><path fill="#545454" d="M158.105 516.41v-58.82c0-8.653 7.083-15.692 15.713-15.692h58.91c8.608 0 15.692 7.039 15.692 15.691v58.821c0 8.675-7.084 15.781-15.691 15.781h-58.911c-8.63 0-15.714-7.106-15.714-15.78zM309.259 516.41v-58.82c0-8.653 7.038-15.692 15.714-15.692h58.843c8.698 0 15.714 7.039 15.714 15.691v58.821c0 8.675-7.016 15.781-15.714 15.781h-58.843c-8.676 0-15.714-7.106-15.714-15.78z"/><path fill="#DAB466" d="M158.105 653.846v-58.91c0-8.632 7.083-15.714 15.713-15.714h58.91c8.608 0 15.692 7.082 15.692 15.713v58.91c0 8.564-7.084 15.648-15.691 15.648h-58.911c-8.63 0-15.714-7.084-15.714-15.647z"/><path fill="#545454" d="M309.259 653.846v-58.91c0-8.632 7.038-15.714 15.714-15.714h58.843c8.698 0 15.714 7.082 15.714 15.713v58.91c0 8.564-7.016 15.648-15.714 15.648h-58.843c-8.676 0-15.714-7.084-15.714-15.647zM158.105 791.215v-58.867c0-8.698 7.083-15.714 15.713-15.714h58.91c8.608 0 15.692 7.016 15.692 15.714v58.867c0 8.63-7.084 15.669-15.691 15.669h-58.911c-8.63 0-15.714-7.04-15.714-15.67z"/><path fill="#DAB466" d="M309.259 791.215v-58.867c0-8.698 7.038-15.714 15.714-15.714h58.843a15.69 15.69 0 0 1 15.714 15.714v58.867c0 8.63-7.016 15.669-15.714 15.669h-58.843c-8.676 0-15.714-7.04-15.714-15.67z"/><path fill="#545454" d="M459.337 516.41v-58.82c0-8.653 7.062-15.692 15.692-15.692h58.865c8.631 0 15.692 7.039 15.692 15.691v58.821c0 8.675-7.06 15.781-15.691 15.781h-58.866c-8.63 0-15.692-7.106-15.692-15.78zM610.425 516.41v-58.82c0-8.653 7.039-15.692 15.691-15.692h58.91c8.654 0 15.67 7.039 15.67 15.691v58.821c0 8.675-7.016 15.781-15.67 15.781h-58.91c-8.652 0-15.691-7.106-15.691-15.78zM761.558 516.41v-58.82c0-8.653 7.061-15.692 15.69-15.692h58.89c8.652 0 15.714 7.039 15.714 15.691v58.821c0 8.675-7.062 15.781-15.714 15.781h-58.89c-8.629 0-15.69-7.106-15.69-15.78zM459.337 653.846v-58.91c0-8.632 7.062-15.714 15.692-15.714h58.865c8.631 0 15.692 7.082 15.692 15.713v58.91c0 8.564-7.06 15.648-15.691 15.648h-58.866c-8.63 0-15.692-7.084-15.692-15.647zM610.425 653.846v-58.91c0-8.632 7.039-15.714 15.691-15.714h58.91c8.654 0 15.67 7.082 15.67 15.713v58.91c0 8.564-7.016 15.648-15.67 15.648h-58.91c-8.652 0-15.691-7.084-15.691-15.647z"/><path fill="#DAB466" d="M761.558 653.846v-58.91c0-8.632 7.061-15.714 15.69-15.714h58.89c8.652 0 15.714 7.082 15.714 15.713v58.91c0 8.564-7.062 15.648-15.714 15.648h-58.89c-8.629 0-15.69-7.084-15.69-15.647z"/><g fill="#DAB466"><path d="M111.747 151.245V41.27C111.747 18.494 130.217 0 152.97 0c22.82 0 41.291 18.494 41.291 41.269v109.976c0 22.774-18.471 41.269-41.291 41.269-22.753 0-41.224-18.495-41.224-41.269zM815.738 151.245V41.27C815.738 18.494 834.21 0 857.007 0s41.202 18.494 41.202 41.269v109.976c0 22.774-18.404 41.269-41.202 41.269s-41.269-18.495-41.269-41.269zM346.425 151.245V41.27C346.425 18.494 364.896 0 387.695 0c22.775 0 41.201 18.494 41.201 41.269v109.976c0 22.774-18.426 41.269-41.202 41.269-22.798 0-41.269-18.495-41.269-41.269zM581.104 151.245V41.27C581.104 18.494 599.575 0 622.35 0c22.797 0 41.223 18.494 41.223 41.269v109.976c0 22.774-18.426 41.269-41.223 41.269-22.776 0-41.247-18.495-41.247-41.269z"/></g></svg>